<svg width="402" height="313" viewBox="0 0 402 313" fill="none" xmlns="http://www.w3.org/2000/svg">
<path d="M386.346 -318.68L5.48009 51.0858C-1.8267 58.1796 -1.8267 69.2637 5.48009 75.9142L106.862 174.341C114.168 181.435 125.585 181.435 132.435 174.341L614.683 -293.851C626.1 -304.935 617.88 -324 601.896 -324H399.133C394.11 -324 389.543 -322.227 386.346 -318.68ZM614.683 58.1796L300.948 362.771L186.78 251.93C179.473 244.836 179.473 233.752 186.78 227.101L386.346 33.3513C389.543 30.2477 394.566 28.0309 399.133 28.0309H601.896C617.88 28.0309 626.1 47.0955 614.683 58.1796ZM614.683 420.851L482.248 292.276L300.948 362.771L386.346 445.68C389.543 448.783 394.566 451 399.133 451H601.896C617.88 451 626.1 431.935 614.683 420.851Z" fill="url(#paint0_linear_29_154)"/>
<defs>
<linearGradient id="paint0_linear_29_154" x1="310" y1="-324" x2="310" y2="451" gradientUnits="userSpaceOnUse">
<stop stop-color="#FFD3BB"/>
<stop offset="1" stop-color="#FFE7AE"/>
</linearGradient>
</defs>
</svg>
